<svg width="16" height="16" viewBox="0 0 16 16" fill="none" xmlns="http://www.w3.org/2000/svg">
<path d="M1.63556 10.707C1.82309 10.8944 2.0774 10.9998 2.34256 10.9998C2.60772 10.9998 2.86203 10.8944 3.04956 10.707L7.99956 5.75697L12.9496 10.707C13.1382 10.8891 13.3908 10.9899 13.653 10.9876C13.9152 10.9854 14.166 10.8802 14.3514 10.6948C14.5368 10.5094 14.642 10.2586 14.6442 9.99637C14.6465 9.73417 14.5457 9.48157 14.3636 9.29297L8.70656 3.63597C8.51903 3.4485 8.26472 3.34318 7.99956 3.34318C7.7344 3.34318 7.48009 3.4485 7.29256 3.63597L1.63556 9.29297C1.44809 9.4805 1.34277 9.73481 1.34277 9.99997C1.34277 10.2651 1.44809 10.5194 1.63556 10.707Z" fill="#6F6F6F"/>
</svg>
