<svg width="16" height="16" viewBox="0 0 16 16" fill="none" xmlns="http://www.w3.org/2000/svg">
<path d="M5.29303 14.3644C5.10556 14.1769 5.00024 13.9226 5.00024 13.6574C5.00024 13.3923 5.10556 13.138 5.29303 12.9504L10.243 8.00044L5.29303 3.05044C5.11087 2.86184 5.01008 2.60923 5.01236 2.34704C5.01463 2.08484 5.1198 1.83403 5.30521 1.64862C5.49062 1.46321 5.74143 1.35804 6.00363 1.35577C6.26583 1.35349 6.51843 1.45428 6.70703 1.63644L12.364 7.29344C12.5515 7.48097 12.6568 7.73528 12.6568 8.00044C12.6568 8.2656 12.5515 8.51991 12.364 8.70744L6.70703 14.3644C6.5195 14.5519 6.26519 14.6572 6.00003 14.6572C5.73487 14.6572 5.48056 14.5519 5.29303 14.3644Z" fill="#BDBCBF"/>
</svg>
