<svg width="20" height="20" viewBox="0 0 20 20" fill="none" xmlns="http://www.w3.org/2000/svg">
<path fill-rule="evenodd" clip-rule="evenodd" d="M10 2.29175C8.7811 2.29175 7.69089 2.84268 6.96477 3.70911C6.50614 2.86486 5.61167 2.29175 4.58333 2.29175C3.08756 2.29175 1.875 3.50431 1.875 5.00008V11.6667C1.875 13.1625 3.08756 14.3751 4.58333 14.3751C5.6186 14.3751 6.5182 13.7942 6.97399 12.9406C7.04844 13.0631 7.12867 13.1934 7.21512 13.3339L9.11389 16.4193C9.44752 16.9615 10.0385 17.2917 10.6751 17.2917C11.7986 17.2917 12.6578 16.2903 12.4869 15.1799L12.2844 13.8634C12.1236 12.8179 12.9324 11.8751 13.9902 11.8751H14.565C17.1438 11.8751 18.821 9.16125 17.6678 6.85471L16.7107 4.94052C15.899 3.31718 14.2398 2.29175 12.4249 2.29175H10ZM10.1785 15.7642C10.2846 15.9367 10.4726 16.0417 10.6751 16.0417C11.0325 16.0417 11.3058 15.7232 11.2515 15.3699L11.0489 14.0534C10.7716 12.2508 12.1663 10.6251 13.9902 10.6251H14.565C16.2145 10.6251 17.2874 8.88914 16.5497 7.41373L15.5926 5.49954C14.9927 4.29967 13.7663 3.54175 12.4249 3.54175H10C8.50423 3.54175 7.29167 4.75431 7.29167 6.25008V9.11168C7.29167 10.0913 7.29526 10.4854 7.38039 10.8585C7.40746 10.9771 7.44061 11.0943 7.47973 11.2095C7.60279 11.5719 7.80627 11.9094 8.31969 12.7437L10.1785 15.7642ZM4.58333 13.1251C5.38875 13.1251 6.04167 12.4722 6.04167 11.6667V5.00008C6.04167 4.19467 5.38875 3.54175 4.58333 3.54175C3.77792 3.54175 3.125 4.19467 3.125 5.00008V11.6667C3.125 12.4722 3.77792 13.1251 4.58333 13.1251Z" fill="#D1210F"/>
</svg>
