<svg width="16" height="16" viewBox="0 0 16 16" fill="none" xmlns="http://www.w3.org/2000/svg">
<g clip-path="url(#clip0_2117_4533)">
<path fill-rule="evenodd" clip-rule="evenodd" d="M3.4532 0.709581C2.56466 0.894611 1.77507 1.35604 1.17282 2.0422C0.704397 2.57586 0.40363 3.1193 0.205425 3.79003C-0.134331 4.93972 -0.0486558 6.30736 0.432862 7.42011C0.772689 8.20543 0.780848 8.21537 3.92042 11.6721C5.52224 13.4357 6.9178 14.9409 7.02161 15.017C7.56081 15.412 8.28406 15.4396 8.82397 15.0856C8.97752 14.9849 9.81039 14.0956 11.9881 11.7072C13.6137 9.92424 15.035 8.33365 15.1465 8.17251C16.1102 6.77993 16.2735 4.82022 15.5562 3.25582C14.4825 0.914092 11.928 0.0279025 9.72762 1.23377C9.25817 1.49104 8.92583 1.7637 8.41905 2.30725L7.94761 2.8129L7.44725 2.25766C6.70275 1.43147 6.10008 1.02443 5.26458 0.78357C4.97233 0.699334 4.8213 0.681216 4.31403 0.669645C3.90123 0.660255 3.62962 0.67284 3.4532 0.709581ZM4.94533 2.0152C5.29995 2.11482 5.65113 2.27858 5.91298 2.46641C6.02866 2.5494 6.46655 2.98889 6.88605 3.44303C7.99763 4.64637 7.90883 4.64302 8.94367 3.5201C9.34367 3.08606 9.74277 2.67786 9.83058 2.61299C10.2044 2.3369 10.7271 2.10317 11.1586 2.01925C11.4687 1.95893 12.1 1.96938 12.413 2.04001C13.5224 2.29042 14.4224 3.24207 14.7313 4.49134C14.8412 4.93613 14.8412 5.76088 14.7313 6.20567C14.635 6.59509 14.4525 7.02184 14.2471 7.33798C14.0641 7.61964 8.4314 13.8567 8.24706 13.9819C8.08348 14.0929 7.81911 14.0944 7.65961 13.9853C7.59511 13.9411 6.27242 12.5058 4.72027 10.7956C2.59872 8.4581 1.8562 7.61613 1.72923 7.40387C1.50502 7.02917 1.36252 6.67575 1.25421 6.22558C1.13206 5.7181 1.12617 4.88541 1.24136 4.41342C1.48246 3.42554 2.07466 2.64147 2.88877 2.23217C3.54533 1.90213 4.27039 1.82565 4.94533 2.0152Z" fill="#6F6F6F"/>
</g>
<defs>
<clipPath id="clip0_2117_4533">
<rect width="16" height="16" fill="white"/>
</clipPath>
</defs>
</svg>
