<svg width="16" height="16" viewBox="0 0 16 16" fill="none" xmlns="http://www.w3.org/2000/svg">
<path fill-rule="evenodd" clip-rule="evenodd" d="M3.4532 0.209917C2.56466 0.394947 1.77507 0.856373 1.17282 1.54253C0.704397 2.07619 0.40363 2.61963 0.205425 3.29036C-0.134331 4.44005 -0.0486558 5.8077 0.432862 6.92045C0.772689 7.70577 0.780848 7.7157 3.92042 11.1724C5.52224 12.936 6.9178 14.4412 7.02161 14.5173C7.56081 14.9124 8.28406 14.9399 8.82397 14.5859C8.97752 14.4853 9.81039 13.596 11.9881 11.2076C13.6137 9.42457 15.035 7.83399 15.1465 7.67284C16.1102 6.28027 16.2735 4.32056 15.5562 2.75616C14.4825 0.414428 11.928 -0.471762 9.72762 0.73411C9.25817 0.991376 8.92583 1.26403 8.41905 1.80759L7.94761 2.31324L7.44725 1.75799C6.70275 0.931803 6.10008 0.524768 5.26458 0.283905C4.97233 0.199669 4.8213 0.181552 4.31403 0.16998C3.90123 0.160591 3.62962 0.173175 3.4532 0.209917ZM4.94533 1.51553C5.29995 1.61516 5.65113 1.77891 5.91298 1.96675C6.02866 2.04974 6.46655 2.48923 6.88605 2.94337C7.99763 4.14671 7.90883 4.14336 8.94367 3.02044C9.34367 2.5864 9.74277 2.1782 9.83058 2.11332C10.2044 1.83724 10.7271 1.60351 11.1586 1.51958C11.4687 1.45927 12.1 1.46971 12.413 1.54035C13.5224 1.79076 14.4224 2.7424 14.7313 3.99168C14.8412 4.43647 14.8412 5.26122 14.7313 5.70601C14.635 6.09543 14.4525 6.52218 14.2471 6.83832C14.0641 7.11997 8.4314 13.357 8.24706 13.4822C8.08348 13.5932 7.81911 13.5947 7.65961 13.4856C7.59511 13.4415 6.27242 12.0062 4.72027 10.296C2.59872 7.95844 1.8562 7.11647 1.72923 6.9042C1.50502 6.52951 1.36252 6.17608 1.25421 5.72592C1.13206 5.21844 1.12617 4.38574 1.24136 3.91376C1.48246 2.92588 2.07466 2.14181 2.88877 1.73251C3.54533 1.40246 4.27039 1.32598 4.94533 1.51553Z" fill="#6F6F6F"/>
</svg>
