<svg width="35" height="35" viewBox="0 0 35 35" fill="none" xmlns="http://www.w3.org/2000/svg">
<g clip-path="url(#clip0_2136_5362)">
<path d="M0.00034173 17.4674C0.00034173 14.7336 -0.00102519 11.9999 0.00170865 9.26615C0.00991017 4.12537 4.1052 0.0110955 9.22842 0.00426112C14.7412 -0.00257322 20.254 -0.00120635 25.7668 0.00426112C30.8927 0.00972859 34.9908 4.12263 34.9949 9.26342C35.0003 14.7528 35.0003 20.2435 34.9949 25.7328C34.9894 30.9037 30.8873 34.9906 25.6998 34.9947C20.2321 34.9988 14.7645 34.9988 9.29814 34.9947C4.08333 34.992 0.00717633 30.8982 0.00170865 25.6686C-0.00102519 22.9348 0.00170865 20.2011 0.00170865 17.4674H0.00034173ZM6.15422 17.4318C6.15422 19.1623 6.14738 20.8941 6.15558 22.6245C6.17199 26.1087 8.86756 28.8274 12.3395 28.8411C15.7787 28.8547 19.2179 28.8547 22.6571 28.8411C26.099 28.8274 28.8219 26.1237 28.8383 22.6929C28.856 19.2306 28.8547 15.7697 28.8383 12.3074C28.8219 8.8766 26.099 6.17157 22.6571 6.15926C19.2179 6.14696 15.7787 6.14696 12.3395 6.15926C8.87029 6.17157 6.17199 8.89163 6.15558 12.3744C6.14738 14.0598 6.15558 15.7451 6.15558 17.4305L6.15422 17.4318Z" fill="#D1210F"/>
<path d="M26.7957 17.5342C26.7957 19.2195 26.7998 20.9048 26.7957 22.5916C26.7903 24.9959 25.0133 26.7906 22.6253 26.796C19.208 26.8015 15.7907 26.8015 12.3747 26.796C9.98808 26.7919 8.20835 24.9945 8.20425 22.5929C8.20015 19.199 8.20015 15.8051 8.20425 12.4111C8.20698 10.0082 9.98671 8.21212 12.3747 8.20802C15.792 8.20255 19.2093 8.20255 22.6253 8.20802C25.0133 8.21212 26.7889 10.0068 26.7957 12.4111C26.7998 14.1197 26.7957 15.8283 26.7957 17.5369V17.5342ZM17.4118 12.3934C14.5591 12.4521 12.3228 14.7744 12.3925 17.6052C12.4622 20.4305 14.7477 22.6476 17.5526 22.6093C20.4013 22.5711 22.6553 20.2611 22.6075 17.4303C22.5583 14.579 20.2441 12.3346 17.4118 12.3934ZM24.3763 11.6211C24.3763 11.0538 23.9594 10.6315 23.3921 10.6246C22.8262 10.6164 22.3942 11.0292 22.3778 11.591C22.3614 12.1856 22.803 12.6326 23.3962 12.623C23.9607 12.6134 24.3763 12.1883 24.3763 11.6211Z" fill="#D1210F"/>
<path d="M20.5736 17.4973C20.575 19.195 19.1998 20.5741 17.5021 20.5755C15.8058 20.5769 14.4252 19.1991 14.4238 17.5028C14.4225 15.8065 15.8003 14.426 17.4967 14.426C19.1957 14.426 20.5722 15.7997 20.5736 17.4987V17.4973Z" fill="#D1210F"/>
</g>
<defs>
<clipPath id="clip0_2136_5362">
<rect width="35" height="35" fill="white"/>
</clipPath>
</defs>
</svg>
