<svg width="20" height="20" viewBox="0 0 20 20" fill="none" xmlns="http://www.w3.org/2000/svg">
<path fill-rule="evenodd" clip-rule="evenodd" d="M10 17.7083C8.7811 17.7083 7.69089 17.1573 6.96477 16.2909C6.50614 17.1351 5.61167 17.7083 4.58333 17.7083C3.08756 17.7083 1.875 16.4957 1.875 14.9999V8.33325C1.875 6.83748 3.08756 5.62492 4.58333 5.62492C5.6186 5.62492 6.5182 6.20579 6.97399 7.05939C7.04844 6.93693 7.12867 6.80659 7.21512 6.66615L9.11389 3.58065C9.44752 3.0385 10.0385 2.70825 10.6751 2.70825C11.7986 2.70825 12.6578 3.7097 12.4869 4.82014L12.2844 6.13662C12.1236 7.18208 12.9324 8.12492 13.9902 8.12492H14.565C17.1438 8.12492 18.821 10.8388 17.6678 13.1453L16.7107 15.0595C15.899 16.6828 14.2398 17.7083 12.4249 17.7083H10ZM10.1785 4.23577C10.2846 4.06331 10.4726 3.95825 10.6751 3.95825C11.0325 3.95825 11.3058 4.27682 11.2515 4.63007L11.0489 5.94655C10.7716 7.74921 12.1663 9.37492 13.9902 9.37492H14.565C16.2145 9.37492 17.2874 11.1109 16.5497 12.5863L15.5926 14.5005C14.9927 15.7003 13.7663 16.4583 12.4249 16.4583H10C8.50423 16.4583 7.29167 15.2457 7.29167 13.7499V10.8883C7.29167 9.9087 7.29526 9.51462 7.38039 9.14148C7.40746 9.02286 7.44061 8.90571 7.47973 8.7905C7.60279 8.4281 7.80627 8.09059 8.31969 7.25629L10.1785 4.23577ZM4.58333 6.87492C5.38875 6.87492 6.04167 7.52784 6.04167 8.33325V14.9999C6.04167 15.8053 5.38875 16.4583 4.58333 16.4583C3.77792 16.4583 3.125 15.8053 3.125 14.9999V8.33325C3.125 7.52784 3.77792 6.87492 4.58333 6.87492Z" fill="#00A67E"/>
</svg>
