<svg width="16" height="16" viewBox="0 0 16 16" fill="none" xmlns="http://www.w3.org/2000/svg">
<g clip-path="url(#clip0_2111_2407)">
<path d="M15.4361 9.6C15.5105 9.59989 15.5841 9.61451 15.6528 9.64302C15.7215 9.67153 15.7839 9.71335 15.8363 9.76609C15.8887 9.81882 15.9302 9.88141 15.9583 9.95026C15.9865 10.0191 16.0007 10.0928 16.0001 10.1672V12.7304C16.0007 12.8044 15.9866 12.8778 15.9587 12.9464C15.9309 13.015 15.8897 13.0774 15.8377 13.1301C15.7857 13.1828 15.7238 13.2247 15.6556 13.2534C15.5874 13.2822 15.5142 13.2972 15.4401 13.2976C15.3661 13.2972 15.2929 13.2822 15.2247 13.2534C15.1564 13.2247 15.0946 13.1828 15.0425 13.1301C14.9905 13.0774 14.9494 13.015 14.9215 12.9464C14.8937 12.8778 14.8796 12.8044 14.8801 12.7304V11.8304C13.4233 14.2752 10.7193 16 7.80573 16C4.27773 16 1.32093 13.8232 0.0385305 10.468C-0.0157491 10.3282 -0.0125697 10.1727 0.0473754 10.0353C0.107321 9.89784 0.219169 9.78969 0.35853 9.7344C0.646531 9.6216 0.97133 9.7664 1.08333 10.0584C2.20333 12.988 4.75373 14.8664 7.80573 14.8664C10.5025 14.8664 13.0217 13.1208 14.1953 10.7432L13.0185 10.7512C12.9445 10.7513 12.8712 10.7368 12.8028 10.7086C12.7343 10.6803 12.6722 10.6388 12.6198 10.5865C12.5674 10.5342 12.5258 10.4721 12.4975 10.4037C12.4691 10.3353 12.4545 10.262 12.4545 10.188C12.4526 10.0386 12.5101 9.89445 12.6143 9.78735C12.7186 9.68025 12.8611 9.61891 13.0105 9.6168L15.4361 9.6ZM8.19613 0C11.7225 0 14.6801 2.1768 15.9625 5.532C16.0168 5.67176 16.0136 5.82731 15.9537 5.96473C15.8937 6.10216 15.7819 6.21031 15.6425 6.2656C15.5737 6.29244 15.5003 6.30533 15.4264 6.30354C15.3526 6.30175 15.2798 6.2853 15.2124 6.25516C15.1449 6.22502 15.0842 6.18177 15.0336 6.12795C14.983 6.07412 14.9436 6.01078 14.9177 5.9416C13.7977 3.012 11.2473 1.1336 8.19533 1.1336C5.49853 1.1336 2.97933 2.8792 1.80573 5.2568L2.98253 5.2488C3.05656 5.24869 3.12988 5.26319 3.1983 5.29144C3.26673 5.3197 3.32891 5.36117 3.38129 5.41347C3.43367 5.46578 3.47523 5.52791 3.50358 5.59629C3.53194 5.66467 3.54653 5.73797 3.54653 5.812C3.54845 5.96145 3.49098 6.10555 3.38673 6.21265C3.28248 6.31975 3.13998 6.38109 2.99053 6.3832L0.56413 6.4C0.489765 6.40011 0.416114 6.38549 0.347429 6.35698C0.278744 6.32847 0.216384 6.28665 0.163949 6.23391C0.111513 6.18118 0.0700403 6.11859 0.0419234 6.04974C0.0138064 5.9809 -0.000397776 5.90716 0.000130466 5.8328V3.2696C0.000130466 2.956 0.25053 2.7024 0.56013 2.7024C0.86973 2.7024 1.12013 2.956 1.12013 3.2696V4.1696C2.57693 1.7248 5.28093 0 8.19453 0" fill="black"/>
</g>
<defs>
<clipPath id="clip0_2111_2407">
<rect width="16" height="16" fill="white"/>
</clipPath>
</defs>
</svg>
