<svg width="26" height="26" viewBox="0 0 26 26" fill="none" xmlns="http://www.w3.org/2000/svg">
<path d="M21.3143 4.99969H4.69025C3.20629 4.99969 2 6.1525 2 7.57066V18.4287C2 19.8469 3.20629 20.9997 4.69025 20.9997H21.3097C22.7937 20.9997 24 19.8469 24 18.4287V7.57501C24.0045 6.15685 22.7983 4.99969 21.3143 4.99969ZM22.7755 18.4287C22.7755 19.1987 22.12 19.8251 21.3143 19.8251H4.69025C3.88454 19.8251 3.22905 19.1987 3.22905 18.4287V7.57501C3.22905 6.80502 3.88454 6.1786 4.69025 6.1786H21.3097C22.1154 6.1786 22.7709 6.80502 22.7709 7.57501V18.4287H22.7755Z" fill="#D1210F"/>
<path d="M15.7135 12.8562L20.7982 8.06792C21.0348 7.84206 21.0563 7.45809 20.8412 7.20512C20.6261 6.95667 20.2604 6.93409 20.0195 7.15995L13.0077 13.7687L11.6397 12.4858C11.6354 12.4813 11.6311 12.4768 11.6311 12.4723C11.601 12.4406 11.5709 12.4135 11.5364 12.3864L5.96995 7.15543C5.72905 6.92957 5.3634 6.95216 5.14831 7.20512C4.93322 7.45809 4.95473 7.84206 5.19563 8.06792L10.3406 12.8969L5.21714 17.9336C4.98484 18.164 4.97194 18.548 5.19133 18.7964C5.30747 18.9229 5.46234 18.9907 5.6172 18.9907C5.75916 18.9907 5.90112 18.9365 6.01297 18.828L11.2138 13.719L12.6248 15.0426C12.7366 15.1465 12.8743 15.1962 13.012 15.1962C13.1496 15.1962 13.2916 15.142 13.3991 15.0381L14.8488 13.6738L20.0195 18.8326C20.1314 18.9455 20.2777 18.9997 20.4196 18.9997C20.5745 18.9997 20.725 18.9365 20.8412 18.81C21.0606 18.566 21.052 18.1776 20.8197 17.9472L15.7135 12.8562Z" fill="#D1210F"/>
</svg>
