<svg width="26" height="26" viewBox="0 0 26 26" fill="none" xmlns="http://www.w3.org/2000/svg">
<path d="M19.249 14.8511C18.463 16.3778 17.398 17.8986 16.309 19.2643C15.2759 20.5517 14.1713 21.7849 13 22.9586C11.8286 21.785 10.724 20.5517 9.691 19.2643C8.602 17.8986 7.537 16.3778 6.751 14.8511C5.956 13.3087 5.5 11.864 5.5 10.6249C5.5 8.71863 6.29018 6.89047 7.6967 5.54255C9.10322 4.19463 11.0109 3.43738 13 3.43738C14.9891 3.43738 16.8968 4.19463 18.3033 5.54255C19.7098 6.89047 20.5 8.71863 20.5 10.6249C20.5 11.864 20.0425 13.3087 19.249 14.8511ZM13 24.9999C13 24.9999 22 16.8263 22 10.6249C22 8.33739 21.0518 6.14358 19.364 4.52608C17.6761 2.90858 15.3869 1.99988 13 1.99988C10.6131 1.99988 8.32387 2.90858 6.63604 4.52608C4.94821 6.14358 4 8.33739 4 10.6249C4 16.8263 13 24.9999 13 24.9999Z" fill="#D1210F"/>
<path d="M13 13.1514C12.2928 13.1514 11.6145 12.8577 11.1144 12.3348C10.6143 11.812 10.3333 11.1029 10.3333 10.3635C10.3333 9.62413 10.6143 8.91502 11.1144 8.39219C11.6145 7.86936 12.2928 7.57564 13 7.57564C13.7072 7.57564 14.3855 7.86936 14.8856 8.39219C15.3857 8.91502 15.6667 9.62413 15.6667 10.3635C15.6667 11.1029 15.3857 11.812 14.8856 12.3348C14.3855 12.8577 13.7072 13.1514 13 13.1514ZM13 14.5453C14.0609 14.5453 15.0783 14.1048 15.8284 13.3205C16.5786 12.5363 17 11.4726 17 10.3635C17 9.25443 16.5786 8.19077 15.8284 7.40653C15.0783 6.62228 14.0609 6.1817 13 6.1817C11.9391 6.1817 10.9217 6.62228 10.1716 7.40653C9.42143 8.19077 9 9.25443 9 10.3635C9 11.4726 9.42143 12.5363 10.1716 13.3205C10.9217 14.1048 11.9391 14.5453 13 14.5453Z" fill="#D1210F"/>
</svg>
