<svg width="40" height="40" viewBox="0 0 40 40" fill="none" xmlns="http://www.w3.org/2000/svg">
<g clip-path="url(#clip0_2127_4345)">
<path d="M0.00320846 23.902C0.00320846 22.7777 0.00142465 21.6535 0.00320846 20.5293C0.00677606 19.0072 0.625756 17.7711 1.83696 16.8653C2.21691 16.5811 2.34177 16.3023 2.34891 15.8441C2.46307 8.11296 7.47021 1.8311 15.0924 0.545249C19.7017 -0.232657 24.4823 -0.449334 28.8901 1.76006C34.6946 4.66922 37.6272 9.45565 37.8181 15.9045C37.8377 16.5634 37.9643 17.0322 38.4763 17.5135C39.4841 18.4584 39.9907 19.6839 39.9925 21.0869C39.9943 22.9518 40.0157 24.8166 39.9889 26.6797C39.9568 28.937 38.8812 30.5568 36.8352 31.5088C36.416 31.7041 36.234 31.9048 36.1752 32.3985C35.8131 35.4231 33.7064 37.2578 30.6311 37.2809C29.0863 37.2933 27.5398 37.3004 25.995 37.2738C25.4938 37.2649 25.2208 37.3821 25.0068 37.8936C24.4253 39.2896 23.3015 39.968 21.7924 39.9893C20.5152 40.0071 19.2362 40.0018 17.959 39.9893C15.8594 39.9734 14.4146 38.62 14.3503 36.6255C14.2879 34.7038 15.6757 33.196 17.7057 33.0965C19.1291 33.0255 20.5615 33.0237 21.9832 33.0965C23.3942 33.1693 24.4806 33.8691 25.0139 35.2065C25.2173 35.7162 25.4848 35.8529 25.995 35.8441C27.5986 35.8174 29.2059 35.8618 30.8095 35.8245C32.8948 35.7766 34.4199 34.4694 34.6928 32.6117C34.7624 32.141 34.675 32.0043 34.1809 31.9794C31.3892 31.8426 31.2501 31.6846 31.2501 28.9264C31.2501 25.2873 31.2483 21.6464 31.2501 18.0073C31.2501 16.7179 31.5462 16.2614 32.8127 15.908C33.3924 15.7464 33.1998 15.3823 33.1623 15.0892C32.7182 11.6224 31.1092 8.8287 28.2141 6.82533C26.2875 5.4933 24.1363 4.77755 21.7781 4.82196C19.6464 4.86103 17.5041 4.61061 15.3921 5.15052C10.6543 6.36001 7.23296 10.317 6.72636 15.1745C6.67463 15.6789 6.78701 15.805 7.27756 15.9045C8.24438 16.0998 8.74028 16.7481 8.74384 17.748C8.75811 21.8915 8.7599 26.0332 8.74384 30.1767C8.73849 31.3169 8.04103 31.9918 6.8869 31.9847C5.79165 31.9776 4.69104 32.1126 3.60114 31.8515C1.5016 31.3471 0.0513711 29.5942 0.0103437 27.4523C-0.0128458 26.2694 0.00677606 25.0848 0.00677606 23.902H0.00320846ZM20.0282 1.63219C19.3147 1.63219 18.6011 1.62686 17.8894 1.63219C10.3796 1.69257 4.20585 7.56239 3.77595 15.0111C3.72957 15.7997 3.89903 16.0163 4.7178 15.9009C5.57403 15.7801 5.25829 15.1425 5.31894 14.7518C6.1609 9.32777 9.19871 5.74017 14.3807 3.94459C16.8566 3.08676 19.4377 3.42421 21.9814 3.39224C23.9472 3.36738 25.8113 3.85224 27.538 4.7669C31.7603 7.00471 34.1309 10.5195 34.6054 15.2544C34.7107 16.3112 35.4991 15.9062 35.9897 16.011C36.6675 16.1567 36.3535 15.5279 36.3375 15.2864C35.9397 9.42546 33.0749 5.21801 27.7092 2.7582C25.2743 1.64284 22.6629 1.51497 20.03 1.62863L20.0282 1.63219ZM7.30967 23.9588C7.30967 22.0069 7.30788 20.0551 7.31145 18.1032C7.31145 17.6965 7.32572 17.3022 6.74598 17.32C5.85765 17.3466 4.96396 17.24 4.0792 17.4052C2.56475 17.6858 1.46771 18.9024 1.44987 20.4263C1.42133 22.7617 1.4249 25.099 1.44987 27.4363C1.46414 28.8731 2.40599 30.0222 3.79557 30.4236C4.67321 30.6776 5.56867 30.5 6.45344 30.5763C7.11345 30.6332 7.33821 30.3934 7.32572 29.7274C7.29004 27.8057 7.31323 25.8823 7.31323 23.9606L7.30967 23.9588ZM32.6843 23.9251C32.6843 25.4613 32.6843 26.9994 32.6843 28.5357C32.6843 30.0145 33.4323 30.6876 34.9283 30.555C37.0243 30.3685 38.5334 28.7648 38.5512 26.6673C38.5672 24.806 38.5726 22.9429 38.5476 21.0816C38.5262 19.4139 37.3436 17.9043 35.756 17.4816C35.0335 17.288 34.2843 17.3377 33.5441 17.304C32.893 17.2756 32.6575 17.4905 32.6718 18.1618C32.711 20.0817 32.6861 22.0034 32.6861 23.9251H32.6843ZM19.7535 38.5667C20.4367 38.5667 21.1217 38.5863 21.8031 38.5614C22.9447 38.5188 23.7991 37.6947 23.8491 36.622C23.8955 35.5972 23.1391 34.6239 22.0439 34.5564C20.5651 34.4659 19.0721 34.4694 17.5933 34.5529C16.507 34.615 15.7239 35.5936 15.7595 36.6024C15.7988 37.6698 16.6586 38.5135 17.7931 38.5614C18.4459 38.588 19.1006 38.5667 19.7535 38.5667Z" fill="#D1210F"/>
</g>
<defs>
<clipPath id="clip0_2127_4345">
<rect width="40" height="40" fill="white"/>
</clipPath>
</defs>
</svg>
