<svg width="16" height="16" viewBox="0 0 16 16" fill="none" xmlns="http://www.w3.org/2000/svg">
<path d="M10.9998 3.99996V11.6666C10.9998 12.3739 10.7189 13.0521 10.2188 13.5522C9.71869 14.0523 9.04041 14.3333 8.33317 14.3333C7.62593 14.3333 6.94765 14.0523 6.44755 13.5522C5.94746 13.0521 5.6665 12.3739 5.6665 11.6666V3.33329C5.6665 2.89127 5.8421 2.46734 6.15466 2.15478C6.46722 1.84222 6.89114 1.66663 7.33317 1.66663C7.7752 1.66663 8.19912 1.84222 8.51168 2.15478C8.82424 2.46734 8.99984 2.89127 8.99984 3.33329V10.3333C8.99984 10.5101 8.9296 10.6797 8.80457 10.8047C8.67955 10.9297 8.50998 11 8.33317 11C8.15636 11 7.98679 10.9297 7.86177 10.8047C7.73674 10.6797 7.6665 10.5101 7.6665 10.3333V3.99996H6.6665V10.3333C6.6665 10.7753 6.8421 11.1992 7.15466 11.5118C7.46722 11.8244 7.89114 12 8.33317 12C8.7752 12 9.19912 11.8244 9.51168 11.5118C9.82424 11.1992 9.99984 10.7753 9.99984 10.3333V3.33329C9.99984 2.62605 9.71889 1.94777 9.21879 1.44767C8.71869 0.947578 8.04041 0.666626 7.33317 0.666626C6.62593 0.666626 5.94765 0.947578 5.44755 1.44767C4.94746 1.94777 4.6665 2.62605 4.6665 3.33329V11.6666C4.6665 12.6391 5.05281 13.5717 5.74045 14.2594C6.42808 14.947 7.36071 15.3333 8.33317 15.3333C9.30563 15.3333 10.2383 14.947 10.9259 14.2594C11.6135 13.5717 11.9998 12.6391 11.9998 11.6666V3.99996H10.9998Z" fill="#6F6F6F"/>
</svg>
