<svg width="40" height="40" viewBox="0 0 40 40" fill="none" xmlns="http://www.w3.org/2000/svg">
<path d="M5 17.1053H35M25.7692 25.2105H29.2308M32.6923 9H7.30769C6.69565 9 6.10868 9.24398 5.67591 9.67828C5.24313 10.1126 5 10.7016 5 11.3158V28.6842C5 29.2984 5.24313 29.8874 5.67591 30.3217C6.10868 30.756 6.69565 31 7.30769 31H32.6923C33.3043 31 33.8913 30.756 34.3241 30.3217C34.7569 29.8874 35 29.2984 35 28.6842V11.3158C35 10.7016 34.7569 10.1126 34.3241 9.67828C33.8913 9.24398 33.3043 9 32.6923 9Z" stroke="#D1210F" stroke-width="1.5" stroke-linecap="round" stroke-linejoin="round"/>
</svg>
