<svg width="26" height="26" viewBox="0 0 26 26" fill="none" xmlns="http://www.w3.org/2000/svg">
<path d="M9.05357 1.85715C8.37632 1.85715 7.72681 2.12618 7.24792 2.60507C6.76904 3.08396 6.5 3.73347 6.5 4.41072V21.5893C6.5 22.2665 6.76904 22.9161 7.24792 23.3949C7.72681 23.8738 8.37632 24.1429 9.05357 24.1429H16.9464C17.6237 24.1429 18.2732 23.8738 18.7521 23.3949C19.231 22.9161 19.5 22.2665 19.5 21.5893V4.41072C19.5 3.73347 19.231 3.08396 18.7521 2.60507C18.2732 2.12618 17.6237 1.85715 16.9464 1.85715H9.05357ZM7.89286 4.41072C7.89286 3.77 8.41286 3.25 9.05357 3.25H16.9464C17.5871 3.25 18.1071 3.77 18.1071 4.41072V21.5893C18.1071 22.23 17.5871 22.75 16.9464 22.75H9.05357C8.41286 22.75 7.89286 22.23 7.89286 21.5893V4.41072ZM11.375 19.5C11.1903 19.5 11.0132 19.5734 10.8826 19.704C10.7519 19.8346 10.6786 20.0117 10.6786 20.1964C10.6786 20.3811 10.7519 20.5583 10.8826 20.6889C11.0132 20.8195 11.1903 20.8929 11.375 20.8929H14.625C14.8097 20.8929 14.9868 20.8195 15.1174 20.6889C15.2481 20.5583 15.3214 20.3811 15.3214 20.1964C15.3214 20.0117 15.2481 19.8346 15.1174 19.704C14.9868 19.5734 14.8097 19.5 14.625 19.5H11.375Z" fill="#D1210F"/>
</svg>
