<svg width="26" height="26" viewBox="0 0 26 26" fill="none" xmlns="http://www.w3.org/2000/svg">
<path fill-rule="evenodd" clip-rule="evenodd" d="M3.53534 3.04104C3.23205 3.15499 3 3.48583 3 3.80419C3 4.00162 3.10909 4.24898 3.25914 4.39175C3.32145 4.451 3.78003 4.6908 4.27823 4.92457C4.77644 5.15833 5.22324 5.3887 5.27109 5.43648C5.34427 5.50948 5.5274 6.27351 6.41865 10.224C7.1506 13.4684 7.51068 14.9919 7.58102 15.1416C7.80893 15.6268 8.2221 16.0136 8.73897 16.2255L8.96488 16.3181L14.262 16.3305C18.1703 16.3396 19.6158 16.3307 19.7757 16.2965C20.1293 16.2208 20.4665 16.0342 20.7634 15.7497C21.2339 15.2993 21.1979 15.4155 22.1407 11.3005C22.5967 9.31051 22.9802 7.5618 22.993 7.41456C23.0778 6.43587 22.3832 5.4741 21.4261 5.24509C21.2069 5.19264 20.3843 5.18464 15.1567 5.18412C8.56155 5.18348 8.99166 5.16797 8.73492 5.41553C8.56762 5.57685 8.49976 5.73865 8.4968 5.98313C8.49318 6.28199 8.62421 6.51879 8.883 6.68115L9.07681 6.80273L15.1187 6.82272L21.1606 6.84271L21.2755 6.97329C21.3593 7.06852 21.3904 7.14457 21.3904 7.25431C21.3904 7.47125 19.7941 14.4046 19.7164 14.5249C19.5723 14.7481 19.802 14.7389 14.3998 14.7389C9.06877 14.7389 9.2636 14.7459 9.0876 14.5454C9.03333 14.4836 8.73015 13.205 7.95804 9.78181C7.25197 6.65141 6.86861 5.02728 6.79984 4.87479C6.65417 4.55175 6.42003 4.26009 6.15797 4.07522C5.84716 3.85597 4.07159 3.02897 3.85777 3.00386C3.75829 2.99219 3.62423 3.00766 3.53534 3.04104ZM10.5008 17.9441C9.7099 18.0961 9.03112 18.8196 8.89993 19.6506C8.78033 20.4084 9.13265 21.2156 9.77224 21.6492C10.3814 22.0621 11.1399 22.1099 11.8005 21.7768C12.8767 21.2343 13.2355 19.8404 12.5622 18.8169C12.1153 18.1374 11.2972 17.7911 10.5008 17.9441ZM17.4717 17.9441C17.1447 18.007 16.7223 18.2383 16.4736 18.4908C16.1139 18.8559 15.9392 19.2108 15.8798 19.6965C15.7478 20.7769 16.441 21.7409 17.5083 21.9613C18.8228 22.2327 20.0598 21.0353 19.8672 19.6779C19.7025 18.5178 18.6082 17.7257 17.4717 17.9441ZM11.2212 19.2924C11.4017 19.3859 11.4845 19.4767 11.5627 19.6666C11.6428 19.8613 11.638 20.0799 11.5492 20.2762C11.4631 20.4664 11.3753 20.5516 11.18 20.6345C10.9244 20.7429 10.5894 20.6878 10.3898 20.5045C10.1018 20.2402 10.1011 19.6668 10.3884 19.4116C10.6174 19.2081 10.9629 19.1586 11.2212 19.2924ZM18.308 19.362C18.5286 19.5409 18.6011 19.7083 18.5849 20.0015C18.5682 20.3041 18.4331 20.5068 18.1692 20.6253C17.4958 20.9277 16.8639 20.1598 17.2715 19.5344C17.4908 19.1981 18.0013 19.1132 18.308 19.362Z" fill="white"/>
</svg>
