<svg width="11" height="11" viewBox="0 0 11 11" fill="none" xmlns="http://www.w3.org/2000/svg">
<path d="M0.225 10.275C0.375 10.425 0.525 10.5 0.75 10.5C0.975 10.5 1.125 10.425 1.275 10.275L5.25 6.3L9.225 10.275C9.375 10.425 9.6 10.5 9.75 10.5C9.9 10.5 10.125 10.425 10.275 10.275C10.575 9.975 10.575 9.525 10.275 9.225L6.3 5.25L10.275 1.275C10.575 0.975 10.575 0.525 10.275 0.225C9.975 -0.075 9.525 -0.075 9.225 0.225L5.25 4.2L1.275 0.225C0.975 -0.075 0.525 -0.075 0.225 0.225C-0.075 0.525 -0.075 0.975 0.225 1.275L4.2 5.25L0.225 9.225C-0.075 9.525 -0.075 9.975 0.225 10.275Z" fill="#E24646"/>
</svg>
