<svg width="18" height="18" viewBox="0 0 18 18" fill="none" xmlns="http://www.w3.org/2000/svg">
<g clip-path="url(#clip0_2136_5323)">
<path d="M8.98313 18C4.02086 17.9986 -0.000702978 13.9616 9.21717e-08 8.98172C0.000703162 4.00539 4.04054 -0.0028108 9.05273 1.47898e-06C13.9827 0.00281376 18.0042 4.05601 17.9993 9.01617C17.9951 13.9827 13.9623 18.0007 8.98242 17.9993L8.98313 18ZM14.4228 8.34123C14.446 7.6944 14.3757 7.05531 14.266 6.41903C14.0389 5.10359 12.8795 3.87603 11.5782 3.62081C9.8711 3.28615 8.14647 3.251 6.44997 3.62784C5.05297 3.9386 4.1214 4.84205 3.78181 6.26084C3.50129 7.43497 3.53715 8.62738 3.66651 9.82259C3.79517 11.0122 4.38716 11.8967 5.35669 12.5639C5.62245 12.7467 6.05203 12.7586 6.16452 13.0469C6.27982 13.3422 6.19475 13.7162 6.19475 14.0558C6.19475 14.3004 6.28334 14.491 6.51957 14.5866C6.75299 14.6808 6.92383 14.5669 7.07851 14.4059C7.40333 14.0684 7.73447 13.7366 8.05437 13.3942C8.16686 13.274 8.28006 13.2163 8.4502 13.2248C9.36489 13.2697 10.2733 13.2058 11.1809 13.0806C12.7199 12.8683 14.0023 11.697 14.2618 10.2269C14.3722 9.60324 14.4439 8.9761 14.4214 8.34123H14.4228Z" fill="#824AAC"/>
<path d="M13.4725 8.27513C13.4577 8.95921 13.4085 9.60112 13.2728 10.2325C13.0935 11.0691 12.1331 11.9466 11.2585 12.0886C10.4711 12.2165 9.67871 12.2882 8.88143 12.2805C8.67332 12.2784 8.53411 12.3494 8.39491 12.4957C7.90205 13.0131 7.39866 13.52 6.89666 14.0283C6.83479 14.0909 6.78066 14.2013 6.67098 14.157C6.55989 14.112 6.59997 13.9946 6.59997 13.9074C6.59645 13.3801 6.59856 12.8535 6.59786 12.3262C6.59786 12.199 6.61122 12.0837 6.44248 12.0183C5.24093 11.5528 4.67004 10.6417 4.57934 9.38105C4.51326 8.46636 4.50271 7.55589 4.67988 6.65244C4.90065 5.52964 5.69512 4.72673 6.82495 4.52917C8.2782 4.27536 9.73988 4.27606 11.1931 4.53339C12.3426 4.73728 13.1589 5.60627 13.3466 6.77618C13.4282 7.28591 13.4549 7.79985 13.4718 8.27583L13.4725 8.27513ZM9.31241 9.70869C9.3321 9.7115 9.27023 9.7122 9.2168 9.69181C8.44201 9.40074 7.94635 8.84039 7.67496 8.07194C7.60747 7.88141 7.69113 7.73025 7.85003 7.61705C7.96533 7.53479 8.07149 7.4455 8.1193 7.30348C8.22125 7.00046 7.46264 5.865 7.13993 5.83969C6.64918 5.80102 6.07126 6.58565 6.24281 7.05741C6.92619 8.94164 8.18258 10.2796 10.0387 11.0501C10.6722 11.3131 11.1235 11.1437 11.4399 10.5221C11.5517 10.3021 11.5404 10.1165 11.3373 9.96531C11.0659 9.76212 10.791 9.56385 10.5147 9.36629C10.2355 9.16662 9.99088 9.20388 9.78839 9.483C9.68855 9.6208 9.58239 9.74103 9.31241 9.70939V9.70869ZM11.6797 8.19427C11.6564 7.53058 11.4512 6.93437 11.0019 6.4366C10.4844 5.8636 9.83761 5.55284 9.06001 5.53597C8.95314 5.53386 8.79636 5.4973 8.79425 5.67377C8.79214 5.83829 8.93979 5.82422 9.05368 5.83477C9.10009 5.83899 9.14719 5.83829 9.19359 5.84321C10.3305 5.95992 11.1538 6.72908 11.3429 7.8575C11.3738 8.041 11.3766 8.22872 11.4005 8.41363C11.4111 8.49941 11.4547 8.57042 11.5566 8.57042C11.6691 8.57042 11.6846 8.48745 11.6881 8.40308C11.6909 8.33348 11.6825 8.26317 11.6789 8.19287L11.6797 8.19427ZM10.9843 8.00444C10.959 7.07991 10.2573 6.32622 9.36303 6.25521C9.23859 6.24536 9.04173 6.16381 9.02556 6.37684C9.0122 6.5526 9.19641 6.52378 9.31874 6.54346C10.1547 6.67986 10.611 7.17412 10.6883 8.02483C10.6989 8.13943 10.6806 8.2927 10.8458 8.28497C11.0448 8.27653 10.9646 8.09936 10.9843 8.00444ZM10.2995 7.82024C10.3115 7.40191 9.87487 6.94562 9.42772 6.96109C9.32718 6.9646 9.23367 6.97866 9.22242 7.09748C9.21258 7.19943 9.28921 7.2388 9.3771 7.24864C9.77222 7.29505 9.9733 7.51722 10.007 7.91164C10.0148 8.00304 10.0752 8.09725 10.1948 8.06983C10.2918 8.04803 10.2974 7.95734 10.2988 7.82024H10.2995Z" fill="#824AAC"/>
</g>
<defs>
<clipPath id="clip0_2136_5323">
<rect width="18" height="18" fill="white"/>
</clipPath>
</defs>
</svg>
