<svg width="18" height="18" viewBox="0 0 18 18" fill="none" xmlns="http://www.w3.org/2000/svg">
<g clip-path="url(#clip0_2136_5319)">
<path d="M0.593357 17.6273C0.855326 16.8479 1.04355 16.1354 1.33291 15.4671C1.66862 14.6926 1.58856 14.0807 1.1489 13.3167C-1.81563 8.17047 1.24231 1.43867 7.05128 0.206265C12.0329 -0.850986 16.7891 2.26309 17.8222 7.25812C18.8321 12.142 15.4343 17.0766 10.5257 17.8714C8.30072 18.2316 6.22674 17.8405 4.30447 16.6651C4.11273 16.5476 3.954 16.5413 3.75173 16.6081C2.73335 16.9436 1.71076 17.2686 0.594059 17.628L0.593357 17.6273ZM3.78966 6.6581C3.80019 6.79597 3.79949 7.00419 3.84093 7.21381C4.03618 8.1972 4.58048 8.99629 5.15639 9.78202C6.58001 11.7256 8.36463 13.1669 10.7252 13.8127C11.2561 13.9583 11.7885 14.1172 12.3433 13.9934C13.7964 13.6699 14.4004 12.9137 14.4082 11.6967C14.4096 11.5096 14.3422 11.3858 14.175 11.3056C13.5015 10.9835 12.8293 10.6585 12.1558 10.3356C11.8545 10.1914 11.615 10.273 11.4219 10.5361C11.2421 10.7816 11.0623 11.0271 10.8748 11.2663C10.6072 11.6081 10.4281 11.6595 10.0228 11.497C8.51001 10.8899 7.39612 9.82563 6.55824 8.44762C6.43744 8.24925 6.45289 8.0748 6.60389 7.90387C6.79001 7.69355 6.98385 7.48885 7.15452 7.26657C7.29498 7.08297 7.43966 6.89164 7.32799 6.62715C7.02248 5.90684 6.72399 5.18372 6.42199 4.462C6.3658 4.32835 6.28644 4.18837 6.14176 4.16867C5.58903 4.092 5.04612 4.06738 4.60857 4.52601C4.05654 5.10493 3.77983 5.78796 3.78896 6.6588L3.78966 6.6581Z" fill="#38D547"/>
</g>
<defs>
<clipPath id="clip0_2136_5319">
<rect width="18" height="18" fill="white"/>
</clipPath>
</defs>
</svg>
